<?xml version="1.0" encoding="utf-8"?>
<!-- Generator: Adobe Illustrator 16.0.0, SVG Export Plug-In . SVG Version: 6.00 Build 0)  -->
<!DOCTYPE svg PUBLIC "-//W3C//DTD SVG 1.1//EN" "http://www.w3.org/Graphics/SVG/1.1/DTD/svg11.dtd">
<svg version="1.1" id="Layer_1" xmlns="http://www.w3.org/2000/svg" xmlns:xlink="http://www.w3.org/1999/xlink" x="0px" y="0px"
	 width="702.875px" height="44.375px" viewBox="0 0 702.875 44.375" enable-background="new 0 0 702.875 44.375"
	 xml:space="preserve">
<g>
	<path d="M46.252,41.223h-0.788c-1.147,0.044-2.461,0.066-3.94,0.066L25.333,0.827c-0.24-0.48-0.645-0.72-1.219-0.72
		c-0.668,0-1.099,0.24-1.289,0.72L5.989,41.289H5.56c-1.433,0-2.627-0.022-3.582-0.066H1.333c-0.717,0-1.075,0.394-1.075,1.178
		c0,0.743,0.358,1.113,1.075,1.113c0.096,0,0.287-0.021,0.573-0.064c0.526-0.089,1.158-0.153,1.899-0.196
		c0.74-0.044,1.945-0.066,3.617-0.066h0.359c1.671,0,2.865,0.022,3.582,0.066c0.716,0.043,1.337,0.107,1.863,0.196
		c0.286,0.043,0.476,0.064,0.573,0.064c0.716,0,1.074-0.37,1.074-1.113c0-0.784-0.358-1.178-1.074-1.178h-0.645
		c-1.003,0.044-2.269,0.066-3.797,0.066H8.855l4.657-11.196h17.552l4.442,11.196c-1.433,0-2.747-0.022-3.941-0.066h-0.787
		c-0.717,0-1.075,0.394-1.075,1.178c0,0.743,0.358,1.113,1.075,1.113c0.142,0,0.358-0.021,0.644-0.064
		c0.62-0.044,1.408-0.099,2.364-0.164c0.955-0.066,2.388-0.099,4.298-0.099h0.86c1.91,0,3.343,0.032,4.299,0.099
		c0.955,0.065,1.742,0.12,2.364,0.164c0.287,0.043,0.501,0.064,0.645,0.064c0.716,0,1.074-0.37,1.074-1.113
		C47.326,41.616,46.968,41.223,46.252,41.223 M14.515,27.735l7.952-19.313l7.666,19.313H14.515z"/>
	<path d="M103.326,1.089c-0.153,0-0.382,0.022-0.688,0.065c-0.663,0.044-1.402,0.088-2.216,0.131
		c-0.816,0.044-2.063,0.089-3.745,0.131c-1.528,0-2.713-0.032-3.554-0.098c-0.84-0.065-1.618-0.12-2.33-0.164
		c-0.357-0.043-0.612-0.065-0.765-0.065c-0.255,0-0.509,0.109-0.764,0.327c-0.255,0.219-0.382,0.481-0.382,0.786
		c0,0.786,0.382,1.178,1.146,1.178h0.842c1.272-0.042,2.75-0.065,4.432-0.065v29.79L73.828,3.708l-0.229-0.262
		c-0.663-0.916-1.146-1.506-1.452-1.767c-0.306-0.263-0.714-0.394-1.223-0.394c-0.203,0-0.611,0.023-1.222,0.066
		c-0.917,0.044-1.529,0.065-1.835,0.065c-1.579,0-2.802-0.032-3.668-0.098c-0.867-0.065-1.604-0.12-2.216-0.164
		c-0.305-0.043-0.534-0.065-0.687-0.065c-0.765,0-1.147,0.371-1.147,1.113c0,0.786,0.382,1.178,1.147,1.178h0.84
		c1.273-0.042,2.725-0.065,4.356-0.065v37.974c-1.631,0-3.083-0.022-4.356-0.066h-0.84c-0.765,0-1.147,0.394-1.147,1.179
		c0,0.742,0.382,1.112,1.147,1.112c0.153,0,0.382-0.021,0.687-0.064c0.612-0.044,1.325-0.1,2.14-0.164
		c0.814-0.066,2.063-0.099,3.744-0.099c1.579,0,2.815,0.032,3.707,0.099c0.891,0.064,1.643,0.12,2.254,0.164
		c0.306,0.043,0.535,0.064,0.688,0.064c0.764,0,1.147-0.37,1.147-1.112c0-0.785-0.383-1.179-1.147-1.179h-0.84
		c-1.275,0.044-2.726,0.066-4.356,0.066V7.244l25.906,35.615l0.077,0.065c0.56,0.829,1.12,1.244,1.681,1.244
		c0.713,0,1.07-0.612,1.07-1.833V3.315c1.681,0,3.183,0.023,4.509,0.065h0.764c0.764,0,1.146-0.392,1.146-1.178
		c0-0.305-0.115-0.567-0.344-0.786C103.899,1.198,103.631,1.089,103.326,1.089"/>
	<path d="M155.158,6.458c-0.048-0.829-0.071-1.593-0.071-2.292V2.202c0-0.785-0.359-1.178-1.076-1.178
		c-0.143,0-0.645,0.043-1.505,0.13c-1.243,0.089-2.079,0.131-2.509,0.131l-11.183,0.132h-2.796l-11.184-0.132
		c-0.382,0-1.194-0.042-2.436-0.131c-0.766-0.087-1.268-0.13-1.506-0.13c-0.717,0-1.076,0.393-1.076,1.178v1.964
		c0,0.699-0.024,1.637-0.071,2.816c-0.048,1.178-0.12,2.313-0.215,3.404c-0.048,1.048-0.072,1.615-0.072,1.702
		c0,0.655,0.358,0.982,1.075,0.982c0.812,0,1.219-0.327,1.219-0.982c0-2.706,0.489-4.779,1.47-6.22c0.979-1.44,2.473-2.16,4.48-2.16
		h6.882v37.582c-1.53,0-2.892-0.022-4.086-0.066h-0.789c-0.717,0-1.075,0.393-1.075,1.178c0,0.743,0.358,1.113,1.075,1.113
		c0.144,0,0.359-0.021,0.646-0.065c0.62-0.044,1.409-0.098,2.365-0.163s2.389-0.099,4.301-0.099h0.861
		c1.911,0,3.345,0.033,4.301,0.099s1.744,0.119,2.365,0.163c0.287,0.044,0.502,0.065,0.646,0.065c0.717,0,1.075-0.37,1.075-1.113
		c0-0.785-0.358-1.178-1.075-1.178h-0.717c-1.243,0.044-2.653,0.066-4.23,0.066V3.708h6.954c2.007,0,3.5,0.72,4.48,2.16
		c0.979,1.441,1.47,3.514,1.47,6.22c0,0.655,0.382,0.982,1.147,0.982c0.764,0,1.147-0.327,1.147-0.982
		c0-0.087-0.024-0.654-0.071-1.702C155.277,8.597,155.206,7.287,155.158,6.458"/>
	<path d="M218.58,3.38h0.813c0.813,0,1.219-0.393,1.219-1.178c0-0.305-0.122-0.567-0.366-0.786
		c-0.243-0.218-0.528-0.327-0.853-0.327c-0.163,0-0.407,0.022-0.732,0.065c-0.705,0.044-1.599,0.098-2.682,0.163
		c-1.085,0.066-2.711,0.099-4.878,0.099h-0.975c-2.168,0-3.794-0.033-4.878-0.099c-1.084-0.065-1.979-0.119-2.682-0.163
		c-0.326-0.043-0.569-0.065-0.732-0.065c-0.813,0-1.219,0.371-1.219,1.113c0,0.785,0.406,1.178,1.219,1.178h0.895
		c1.353-0.043,2.898-0.065,4.633-0.065v16.891h-21.623V3.315c1.734,0,3.278,0.022,4.633,0.065h0.894c0.813,0,1.22-0.393,1.22-1.178
		c0-0.305-0.122-0.567-0.366-0.786c-0.244-0.218-0.528-0.327-0.854-0.327c-0.162,0-0.406,0.022-0.731,0.065
		c-0.705,0.044-1.599,0.098-2.682,0.163c-1.085,0.066-2.711,0.099-4.878,0.099H182c-2.168,0-3.794-0.033-4.878-0.099
		c-1.085-0.065-1.979-0.119-2.682-0.163c-0.325-0.043-0.569-0.065-0.732-0.065c-0.271,0-0.542,0.109-0.813,0.327
		c-0.271,0.219-0.406,0.481-0.406,0.786c0,0.785,0.406,1.178,1.219,1.178h0.894c1.354-0.043,2.899-0.065,4.634-0.065v37.973
		c-1.735,0-3.28-0.021-4.634-0.065h-0.894c-0.813,0-1.219,0.393-1.219,1.179c0,0.742,0.406,1.113,1.219,1.113
		c0.163,0,0.407-0.023,0.732-0.066c0.703-0.044,1.597-0.098,2.682-0.163c1.084-0.065,2.71-0.099,4.878-0.099h0.975
		c2.167,0,3.793,0.033,4.878,0.099c1.083,0.065,1.977,0.119,2.682,0.163c0.325,0.043,0.569,0.066,0.731,0.066
		c0.813,0,1.22-0.371,1.22-1.113c0-0.786-0.407-1.179-1.22-1.179h-0.894c-1.355,0.044-2.899,0.065-4.633,0.065V22.563h21.623v18.725
		c-1.735,0-3.28-0.021-4.633-0.065h-0.895c-0.813,0-1.219,0.393-1.219,1.179c0,0.742,0.406,1.113,1.219,1.113
		c0.163,0,0.406-0.023,0.732-0.066c0.703-0.044,1.598-0.098,2.682-0.163s2.71-0.099,4.878-0.099h0.975
		c2.167,0,3.793,0.033,4.878,0.099c1.083,0.065,1.977,0.119,2.682,0.163c0.325,0.043,0.569,0.066,0.732,0.066
		c0.813,0,1.219-0.371,1.219-1.113c0-0.786-0.406-1.179-1.219-1.179h-0.813c-1.41,0.044-3.008,0.065-4.796,0.065V3.315
		C215.572,3.315,217.17,3.337,218.58,3.38"/>
	<path d="M278.697,39.128c-0.816,0-1.223,0.371-1.223,1.112c0,1.267-0.817,1.899-2.448,1.899c-1.275,0-1.912-0.851-1.912-2.554
		c0-0.479,0.05-1.287,0.153-2.422c0.153-2.096,0.23-3.819,0.23-5.173c0-2.357-0.956-4.682-2.869-6.973
		c-1.912-2.292-4.473-3.721-7.686-4.288c1.121-0.174,2.257-0.524,3.404-1.048s2.191-1.2,3.135-2.03
		c0.943-0.828,1.695-1.778,2.257-2.847c0.56-1.069,0.841-2.215,0.841-3.438c0-3.012-1.403-5.434-4.207-7.267
		c-2.804-1.833-6.883-2.75-12.237-2.75h-4.13c-2.091,0.044-3.417,0.066-3.977,0.066c-2.04,0-3.569-0.033-4.589-0.099
		c-1.021-0.065-1.862-0.119-2.523-0.164c-0.307-0.042-0.536-0.065-0.689-0.065c-0.256,0-0.51,0.11-0.765,0.328
		c-0.255,0.218-0.382,0.48-0.382,0.785c0,0.786,0.382,1.179,1.147,1.179h0.841c1.274-0.043,2.728-0.065,4.36-0.065v37.974
		c-1.632,0-3.086-0.022-4.36-0.066h-0.841c-0.765,0-1.147,0.393-1.147,1.178c0,0.743,0.382,1.113,1.147,1.113
		c0.153,0,0.382-0.022,0.689-0.065c0.661-0.044,1.502-0.098,2.523-0.163c1.02-0.065,2.549-0.099,4.589-0.099h0.918
		c2.038,0,3.568,0.033,4.589,0.099c1.019,0.065,1.861,0.119,2.524,0.163c0.305,0.043,0.535,0.065,0.688,0.065
		c0.764,0,1.147-0.37,1.147-1.113c0-0.785-0.383-1.178-1.147-1.178h-0.841c-1.275,0.044-2.729,0.066-4.36,0.066V22.563h6.119
		c3.518,0,5.965,0.797,7.342,2.39c1.377,1.594,2.065,3.939,2.065,7.038c0,4.278,0.585,7.345,1.759,9.198
		c1.172,1.856,3.237,2.783,6.195,2.783c1.325,0,2.472-0.36,3.442-1.081c0.968-0.72,1.453-1.625,1.453-2.716
		c0-0.262-0.128-0.502-0.382-0.721C279.283,39.237,279.003,39.128,278.697,39.128 M256.135,20.207h-4.589V3.708h4.589
		c3.722,0,6.258,0.568,7.61,1.702c1.351,1.136,2.027,3.122,2.027,5.958c0,2.794-0.792,4.966-2.371,6.515
		C261.82,19.433,259.397,20.207,256.135,20.207"/>
	<path d="M328.924,6.326c-1.863-1.964-4.016-3.47-6.464-4.518c-2.449-1.047-5.02-1.57-7.712-1.57c-2.694,0-5.264,0.523-7.712,1.57
		c-2.449,1.048-4.603,2.554-6.464,4.518c-1.861,1.964-3.305,4.311-4.333,7.038c-1.028,2.729-1.542,5.707-1.542,8.937
		s0.514,6.21,1.542,8.937c1.028,2.729,2.472,5.074,4.333,7.038c1.861,1.964,4.015,3.481,6.464,4.55
		c2.448,1.069,5.018,1.605,7.712,1.605c2.742,0,5.325-0.536,7.749-1.605c2.423-1.068,4.564-2.586,6.427-4.55
		c1.859-1.964,3.305-4.31,4.333-7.038c1.028-2.727,1.542-5.707,1.542-8.937s-0.514-6.208-1.542-8.937
		C332.229,10.637,330.783,8.291,328.924,6.326 M324.811,37.426c-2.155,2.924-5.509,4.387-10.062,4.387
		c-4.554,0-7.908-1.463-10.062-4.387c-2.156-2.925-3.232-7.966-3.232-15.125c0-7.158,1.076-12.199,3.232-15.124
		c2.154-2.924,5.508-4.387,10.062-4.387c4.553,0,7.907,1.463,10.062,4.387c2.154,2.925,3.232,7.966,3.232,15.124
		C328.042,29.46,326.964,34.501,324.811,37.426"/>
	<path d="M383.432,4.591c-3.001-2.203-7.271-3.306-12.808-3.306c-1.604,0-3.52,0.022-5.743,0.066
		c-0.984,0.043-2.02,0.065-3.105,0.065c-2.07,0-3.623-0.033-4.658-0.099c-1.035-0.065-1.89-0.119-2.561-0.163
		c-0.312-0.043-0.544-0.066-0.699-0.066c-0.259,0-0.518,0.11-0.777,0.328s-0.388,0.481-0.388,0.786c0,0.785,0.388,1.178,1.165,1.178
		h0.854c1.294-0.043,2.769-0.065,4.425-0.065v37.973c-1.656,0-3.131-0.021-4.425-0.065h-0.854c-0.777,0-1.165,0.393-1.165,1.178
		c0,0.743,0.388,1.114,1.165,1.114c0.155,0,0.388-0.023,0.699-0.066c0.671-0.044,1.525-0.098,2.561-0.163s2.588-0.099,4.658-0.099
		h0.932c2.068,0,3.62,0.033,4.657,0.099c1.034,0.065,1.889,0.119,2.562,0.163c0.31,0.043,0.544,0.066,0.698,0.066
		c0.776,0,1.165-0.371,1.165-1.114c0-0.785-0.389-1.178-1.165-1.178h-0.854c-1.294,0.044-2.769,0.065-4.425,0.065V25.837h5.278
		c5.536,0,9.807-1.113,12.808-3.338c3.002-2.227,4.503-5.216,4.503-8.97C387.935,9.775,386.434,6.795,383.432,4.591 M378.774,21.287
		c-1.553,1.463-4.269,2.194-8.15,2.194h-5.278V3.708h5.278c3.882,0,6.598,0.72,8.15,2.161c1.552,1.44,2.329,3.994,2.329,7.66
		C381.104,17.238,380.326,19.825,378.774,21.287"/>
	<path d="M437.068,6.326c-1.803-1.964-3.889-3.47-6.259-4.518c-2.371-1.047-4.861-1.57-7.468-1.57c-2.609,0-5.098,0.523-7.469,1.57
		c-2.371,1.048-4.457,2.554-6.259,4.518c-1.803,1.964-3.2,4.311-4.196,7.038c-0.996,2.729-1.494,5.707-1.494,8.937
		s0.498,6.21,1.494,8.937c0.996,2.729,2.394,5.074,4.196,7.038c1.802,1.964,3.888,3.481,6.259,4.55
		c2.371,1.069,4.859,1.605,7.469,1.605c2.655,0,5.156-0.536,7.504-1.605c2.347-1.068,4.42-2.586,6.223-4.55s3.201-4.31,4.197-7.038
		c0.996-2.727,1.494-5.707,1.494-8.937s-0.498-6.208-1.494-8.937C440.27,10.637,438.871,8.291,437.068,6.326 M433.086,37.426
		c-2.087,2.924-5.334,4.387-9.744,4.387s-7.658-1.463-9.744-4.387c-2.087-2.925-3.13-7.966-3.13-15.125
		c0-7.158,1.043-12.199,3.13-15.124c2.086-2.924,5.334-4.387,9.744-4.387s7.657,1.463,9.744,4.387
		c2.086,2.925,3.13,7.966,3.13,15.124C436.216,29.46,435.172,34.501,433.086,37.426"/>
	<path d="M495.738,31.995c-0.86,0-1.289,0.327-1.289,0.982c0,2.707-0.506,4.778-1.517,6.22c-1.011,1.439-2.578,2.16-4.7,2.16
		h-13.646V3.777c1.617,0,3.058,0.023,4.321,0.065h0.834c0.758,0,1.137-0.392,1.137-1.178c0-0.305-0.113-0.567-0.341-0.786
		c-0.229-0.218-0.493-0.327-0.796-0.327c-0.151,0-0.379,0.022-0.683,0.065c-0.656,0.044-1.491,0.099-2.502,0.164
		c-1.012,0.066-2.527,0.098-4.548,0.098h-0.91c-2.021,0-3.538-0.032-4.548-0.098c-1.013-0.065-1.846-0.12-2.502-0.164
		c-0.304-0.043-0.531-0.065-0.683-0.065c-0.253,0-0.505,0.109-0.758,0.327c-0.254,0.219-0.38,0.481-0.38,0.786
		c0,0.786,0.38,1.178,1.138,1.178h0.834c1.263-0.042,2.704-0.065,4.32-0.065V41.75c-1.616,0-3.058-0.021-4.32-0.064h-0.834
		c-0.758,0-1.138,0.393-1.138,1.178c0,0.743,0.38,1.113,1.138,1.113c0.151,0,0.379-0.022,0.683-0.065
		c0.656-0.044,1.489-0.099,2.502-0.164c1.01-0.066,2.526-0.098,4.548-0.098c0.859,0,2.906,0.021,6.141,0.065
		c6.266,0.043,10.917,0.065,13.948,0.065c0.607,0,1.566,0.064,2.882,0.196c0.707,0.043,1.161,0.065,1.364,0.065
		c0.304,0,0.568-0.11,0.795-0.327c0.229-0.218,0.343-0.48,0.343-0.786v-2.029c0-0.698,0.024-1.638,0.075-2.815
		c0.05-1.179,0.125-2.312,0.228-3.405c0.05-1.047,0.076-1.613,0.076-1.701C496.951,32.322,496.546,31.995,495.738,31.995"/>
	<path d="M544.529,6.789c-1.762-1.964-3.8-3.47-6.116-4.518c-2.317-1.047-4.749-1.57-7.296-1.57c-2.548,0-4.98,0.523-7.296,1.57
		c-2.317,1.048-4.355,2.554-6.115,4.518c-1.761,1.964-3.127,4.311-4.1,7.038c-0.974,2.729-1.459,5.707-1.459,8.937
		c0,3.229,0.485,6.21,1.459,8.937c0.973,2.729,2.339,5.074,4.1,7.038c1.76,1.964,3.798,3.481,6.115,4.551
		c2.315,1.068,4.748,1.604,7.296,1.604c2.594,0,5.038-0.536,7.332-1.604c2.292-1.069,4.318-2.587,6.08-4.551
		c1.759-1.964,3.127-4.31,4.099-7.038c0.974-2.727,1.46-5.707,1.46-8.937c0-3.23-0.486-6.208-1.46-8.937
		C547.656,11.1,546.288,8.752,544.529,6.789 M540.637,37.888c-2.038,2.924-5.212,4.387-9.52,4.387s-7.482-1.463-9.52-4.387
		c-2.039-2.924-3.058-7.965-3.058-15.124c0-7.158,1.019-12.199,3.058-15.124c2.037-2.924,5.212-4.386,9.52-4.386
		s7.481,1.462,9.52,4.386c2.038,2.925,3.059,7.966,3.059,15.124C543.695,29.923,542.675,34.964,540.637,37.888"/>
	<path d="M611.224,27.281c-0.146,0-0.367,0.021-0.661,0.065c-0.638,0.043-1.446,0.099-2.427,0.164
		c-0.979,0.065-2.425,0.098-4.336,0.098h-0.956c-1.912,0-3.357-0.032-4.338-0.098s-1.789-0.121-2.425-0.164
		c-0.295-0.044-0.516-0.065-0.662-0.065c-0.735,0-1.104,0.393-1.104,1.178c0,0.743,0.368,1.113,1.104,1.113h0.809
		c1.225-0.042,2.621-0.065,4.19-0.065v0.917c0,1.484-0.185,2.913-0.552,4.288s-0.98,2.63-1.839,3.766
		c-0.857,1.135-1.996,2.052-3.418,2.749c-1.422,0.698-3.159,1.048-5.219,1.048c-2.157,0-4.056-0.337-5.697-1.015
		c-1.643-0.677-3.003-1.735-4.079-3.176c-2.354-3.099-3.529-8.205-3.529-15.32c0-7.114,1.176-12.221,3.529-15.321
		c1.076-1.44,2.437-2.498,4.079-3.175c1.642-0.676,3.54-1.015,5.697-1.015c1.765,0,3.455,0.306,5.072,0.917
		c1.618,0.612,3.062,1.473,4.338,2.586c1.273,1.113,2.278,2.434,3.014,3.961c0.735,1.528,1.103,3.165,1.103,4.91
		c0,0.306,0.073,0.557,0.221,0.753c0.147,0.197,0.441,0.295,0.882,0.295c0.393,0,0.674-0.098,0.847-0.295
		c0.171-0.196,0.257-0.447,0.257-0.753V2.009c0-0.305-0.074-0.556-0.221-0.753c-0.147-0.196-0.467-0.294-0.955-0.294
		c-0.395,0-0.662,0.109-0.81,0.327c-0.147,0.219-0.221,0.481-0.221,0.786c0,0.654-0.159,1.321-0.479,1.996
		c-0.318,0.678-0.674,1.19-1.064,1.539c-1.717-1.483-3.566-2.673-5.551-3.568c-1.984-0.894-4.325-1.342-7.021-1.342
		c-2.646,0-5.146,0.524-7.499,1.571c-2.352,1.048-4.436,2.554-6.248,4.518c-1.813,1.964-3.223,4.31-4.227,7.038
		c-1.005,2.728-1.507,5.707-1.507,8.937s0.502,6.208,1.507,8.936c1.004,2.728,2.399,5.074,4.189,7.038
		c1.788,1.965,3.871,3.481,6.249,4.551c2.377,1.069,4.889,1.604,7.535,1.604c5.047,0,9.213-1.31,12.497-3.929
		c3.283-2.619,4.925-6.22,4.925-10.803v-0.655c1.568,0,2.965,0.023,4.191,0.065h0.808c0.735,0,1.104-0.37,1.104-1.113
		C612.327,27.674,611.959,27.281,611.224,27.281"/>
	<path d="M645.304,3.413h0.841c0.765,0,1.147-0.393,1.147-1.178c0-0.305-0.114-0.567-0.345-0.786
		c-0.229-0.218-0.497-0.327-0.803-0.327c-0.152,0-0.382,0.022-0.688,0.065c-0.663,0.044-1.506,0.098-2.523,0.163
		c-1.021,0.066-2.55,0.099-4.588,0.099h-0.918c-2.04,0-3.569-0.033-4.588-0.099c-1.021-0.065-1.862-0.119-2.524-0.163
		c-0.306-0.043-0.535-0.065-0.688-0.065c-0.257,0-0.511,0.109-0.766,0.327c-0.256,0.219-0.382,0.481-0.382,0.786
		c0,0.785,0.382,1.178,1.147,1.178h0.84c1.273-0.043,2.728-0.065,4.358-0.065v37.973c-1.631,0-3.085-0.022-4.358-0.066h-0.84
		c-0.766,0-1.147,0.394-1.147,1.18c0,0.742,0.382,1.112,1.147,1.112c0.152,0,0.382-0.022,0.688-0.065
		c0.662-0.044,1.503-0.099,2.524-0.163c1.019-0.066,2.548-0.099,4.588-0.099h0.918c2.038,0,3.566,0.032,4.588,0.099
		c1.018,0.064,1.86,0.119,2.523,0.163c0.306,0.043,0.535,0.065,0.688,0.065c0.765,0,1.147-0.37,1.147-1.112
		c0-0.786-0.383-1.18-1.147-1.18h-0.841c-1.275,0.044-2.729,0.066-4.359,0.066V3.348C642.575,3.348,644.028,3.37,645.304,3.413"/>
	<path d="M701.666,32.027c-0.882,0-1.321,0.327-1.321,0.982c0,2.707-0.518,4.779-1.554,6.22s-2.64,2.16-4.814,2.16h-14.605V23.058
		h7.613c2.745,0,4.118,1.681,4.118,5.042c0,0.654,0.36,0.982,1.086,0.982c0.674,0,1.011-0.328,1.011-0.982v-0.655
		c-0.104-1.439-0.155-3.294-0.155-5.564c0-2.269,0.051-4.125,0.155-5.565V15.66c0-0.654-0.337-0.982-1.011-0.982
		c-0.726,0-1.086,0.328-1.086,0.982c0,3.362-1.373,5.042-4.118,5.042h-7.613V4.203h12.663c2.175,0,3.779,0.72,4.815,2.16
		c1.036,1.441,1.554,3.514,1.554,6.22c0,0.655,0.44,0.982,1.321,0.982c0.826,0,1.242-0.327,1.242-0.982
		c0-0.087-0.027-0.655-0.077-1.702c-0.105-1.79-0.183-3.099-0.233-3.928c-0.052-0.829-0.078-1.593-0.078-2.292V2.697
		c0-0.786-0.388-1.178-1.165-1.178c-0.155,0-0.699,0.043-1.631,0.13c-1.347,0.088-2.253,0.131-2.719,0.131l-8.079,0.066
		c-6.473,0.043-10.202,0.065-11.187,0.065c-2.069,0-3.624-0.032-4.659-0.098c-1.036-0.065-1.892-0.12-2.563-0.164
		c-0.311-0.043-0.544-0.065-0.699-0.065c-0.26,0-0.519,0.109-0.776,0.327c-0.26,0.219-0.389,0.481-0.389,0.786
		c0,0.786,0.389,1.178,1.165,1.178h0.854c1.294-0.042,2.77-0.065,4.427-0.065v37.974c-1.657,0-3.133-0.021-4.427-0.065h-0.854
		c-0.776,0-1.165,0.393-1.165,1.178c0,0.743,0.389,1.113,1.165,1.113c0.155,0,0.389-0.022,0.699-0.065
		c0.672-0.044,1.527-0.099,2.563-0.163c1.035-0.066,2.59-0.099,4.659-0.099c0.984,0,4.532,0.022,10.644,0.066
		c6.058,0.043,9.58,0.064,10.563,0.064c0.467,0,1.372,0.043,2.72,0.131c0.932,0.088,1.476,0.132,1.631,0.132
		c0.311,0,0.583-0.11,0.815-0.327c0.232-0.218,0.35-0.481,0.35-0.786v-2.03c0-0.698,0.025-1.637,0.078-2.814
		c0.051-1.18,0.128-2.313,0.232-3.405c0.05-1.047,0.077-1.614,0.077-1.702C702.908,32.354,702.493,32.027,701.666,32.027"/>
</g>
</svg>
