<?xml version="1.0" encoding="utf-8"?>
<!-- Generator: Adobe Illustrator 16.0.0, SVG Export Plug-In . SVG Version: 6.00 Build 0)  -->
<!DOCTYPE svg PUBLIC "-//W3C//DTD SVG 1.1//EN" "http://www.w3.org/Graphics/SVG/1.1/DTD/svg11.dtd">
<svg version="1.1" id="Layer_1" xmlns="http://www.w3.org/2000/svg" xmlns:xlink="http://www.w3.org/1999/xlink" x="0px" y="0px"
	 width="48.021px" height="48.021px" viewBox="0 0 48.021 48.021" enable-background="new 0 0 48.021 48.021" xml:space="preserve">
<g id="xqBDpN.tif">
	<g>
		<path fill-rule="evenodd" clip-rule="evenodd" fill="#07738C" d="M21.657,0c0.708,0.105,1.418,0.193,2.122,0.319
			c4.564,0.82,8.42,2.934,11.532,6.375c2.344,2.591,3.902,5.596,4.635,9.016c0.988,4.614,0.411,9.025-1.762,13.221
			c-0.724,1.398-1.618,2.682-2.648,3.872c-0.109,0.127-0.214,0.258-0.379,0.458c0.187,0.157,0.376,0.295,0.541,0.458
			c3.823,3.76,7.646,7.519,11.456,11.291c0.334,0.331,0.581,0.751,0.868,1.13c0,0.235,0,0.471,0,0.706
			c-0.211,0.573-0.619,0.95-1.177,1.177c-0.235,0-0.471,0-0.706,0c-0.398-0.283-0.841-0.519-1.186-0.856
			c-3.925-3.84-7.834-7.697-11.749-11.548c-0.083-0.082-0.17-0.159-0.278-0.259c-0.362,0.26-0.716,0.52-1.076,0.772
			c-2.69,1.881-5.669,3.083-8.918,3.464c-6.908,0.811-12.86-1.25-17.665-6.309C2.365,30.23,0.673,26.543,0.153,22.34
			C0.109,21.98,0.051,21.623,0,21.265c0-0.994,0-1.988,0-2.982c0.025-0.099,0.059-0.197,0.074-0.298
			c0.1-0.67,0.164-1.347,0.299-2.01c0.798-3.89,2.617-7.239,5.424-10.041c3.026-3.021,6.659-4.89,10.874-5.619
			c0.691-0.12,1.388-0.21,2.082-0.315C19.721,0,20.689,0,21.657,0z M20.183,36.694c2.153,0.006,4.233-0.367,6.24-1.145
			c7.138-2.764,11.838-9.984,10.678-17.982c-0.687-4.734-3.016-8.536-6.908-11.304c-4.019-2.858-8.524-3.802-13.355-2.861
			C12.573,4.232,9.069,6.41,6.457,9.9c-2.721,3.636-3.773,7.739-3.174,12.252c0.425,3.203,1.679,6.054,3.785,8.492
			C10.517,34.633,14.916,36.625,20.183,36.694z"/>
	</g>
</g>
</svg>
