<?xml version="1.0" encoding="utf-8"?>
<!-- Generator: Adobe Illustrator 16.0.0, SVG Export Plug-In . SVG Version: 6.00 Build 0)  -->
<!DOCTYPE svg PUBLIC "-//W3C//DTD SVG 1.1//EN" "http://www.w3.org/Graphics/SVG/1.1/DTD/svg11.dtd">
<svg version="1.1" id="Layer_1" xmlns="http://www.w3.org/2000/svg" xmlns:xlink="http://www.w3.org/1999/xlink" x="0px" y="0px"
	 width="48.021px" height="48.021px" viewBox="0 0 48.021 48.021" enable-background="new 0 0 48.021 48.021" xml:space="preserve">
<g id="xqBDpN.tif">
	<g>
		<path fill="#07738C" stroke="#07738C" stroke-width="1.9003" stroke-miterlimit="10" d="M21.774,1.197
			c0.672,0.101,1.348,0.184,2.017,0.303c4.335,0.779,8,2.787,10.957,6.058c2.227,2.461,3.708,5.317,4.403,8.566
			c0.939,4.384,0.392,8.576-1.673,12.562c-0.689,1.328-1.539,2.549-2.517,3.68c-0.104,0.121-0.203,0.245-0.36,0.436
			c0.178,0.148,0.357,0.279,0.515,0.434c3.631,3.573,7.266,7.146,10.885,10.729c0.824,0.798,0.989,1.256,0.824,1.745
			c-0.201,0.544-0.589,0.902-1.118,1.118c-0.237,0.063-0.362,0.143-0.671,0c-0.378-0.27-0.8-0.493-1.127-0.814
			c-3.73-3.648-7.443-7.312-11.163-10.972c-0.079-0.077-0.161-0.15-0.265-0.246c-0.343,0.247-0.681,0.495-1.021,0.733
			c-2.556,1.787-5.386,2.931-8.474,3.293c-6.564,0.77-12.219-1.189-16.784-5.995c-2.758-2.905-4.366-6.408-4.859-10.402
			c-0.042-0.341-0.097-0.681-0.146-1.021c0-0.944,0-1.889,0-2.834c0.024-0.093-0.014-0.379,0-0.475
			c0.095-0.636,0.227-1.087,0.354-1.717c0.758-3.697,2.486-6.878,5.153-9.54c2.875-2.871,6.327-4.647,10.332-5.339
			c0.657-0.114,1.319-0.199,1.978-0.3C19.935,1.197,20.855,1.197,21.774,1.197z M20.374,36.062c2.045,0.005,4.021-0.35,5.928-1.089
			c6.781-2.626,11.249-9.486,10.146-17.084c-0.653-4.499-2.866-8.111-6.564-10.741c-3.818-2.715-8.099-3.613-12.689-2.718
			c-4.052,0.789-7.381,2.858-9.864,6.174c-2.584,3.454-3.584,7.354-3.015,11.641c0.404,3.043,1.594,5.753,3.597,8.07
			C11.19,34.103,15.369,35.997,20.374,36.062z"/>
	</g>
</g>
</svg>
