<?xml version="1.0" encoding="utf-8"?>
<!-- Generator: Adobe Illustrator 16.0.0, SVG Export Plug-In . SVG Version: 6.00 Build 0)  -->
<!DOCTYPE svg PUBLIC "-//W3C//DTD SVG 1.1//EN" "http://www.w3.org/Graphics/SVG/1.1/DTD/svg11.dtd">
<svg version="1.1" id="Layer_1" xmlns="http://www.w3.org/2000/svg" xmlns:xlink="http://www.w3.org/1999/xlink" x="0px" y="0px"
	 width="48.021px" height="43.667px" viewBox="0 0 48.021 43.667" enable-background="new 0 0 48.021 43.667" xml:space="preserve">
<path fill-rule="evenodd" clip-rule="evenodd" fill="none" stroke="#07738C" stroke-width="2.42" stroke-miterlimit="10" d="
	M24.097,13.77c-12.706,0.089-22.548,1.158-22.548,1.158S3.263,26.12,5.28,33.582c2.016,7.461,4.302,8.772,12.2,8.772h6.617h6.618
	c7.898,0,10.184-1.311,12.2-8.772c2.018-7.461,3.731-18.654,3.731-18.654S36.804,13.858,24.097,13.77z"/>
<circle fill-rule="evenodd" clip-rule="evenodd" fill="#07738C" cx="15.863" cy="20.081" r="2.823"/>
<circle fill-rule="evenodd" clip-rule="evenodd" fill="#07738C" cx="32.5" cy="20.081" r="2.823"/>
<path fill-rule="evenodd" clip-rule="evenodd" fill="none" stroke="#07738C" stroke-width="2.42" stroke-miterlimit="10" d="
	M15.419,18.581c0,0-4.192-17.422,8.713-17.422c12.402,0,8.812,17.422,8.812,17.422"/>
</svg>
