<?xml version="1.0" encoding="utf-8"?>
<!-- Generator: Adobe Illustrator 16.0.0, SVG Export Plug-In . SVG Version: 6.00 Build 0)  -->
<!DOCTYPE svg PUBLIC "-//W3C//DTD SVG 1.1//EN" "http://www.w3.org/Graphics/SVG/1.1/DTD/svg11.dtd">
<svg version="1.1" id="Layer_1" xmlns="http://www.w3.org/2000/svg" xmlns:xlink="http://www.w3.org/1999/xlink" x="0px" y="0px"
	 width="48.021px" height="43.542px" viewBox="0 0 48.021 43.542" enable-background="new 0 0 48.021 43.542" xml:space="preserve">
<path fill-rule="evenodd" clip-rule="evenodd" fill="none" stroke="#07738C" stroke-width="2.9355" stroke-miterlimit="10" d="
	M24.026,13.924c-12.433,0.087-22.063,1.133-22.063,1.133S3.641,26.009,5.614,33.31c1.973,7.301,4.209,8.583,11.938,8.583h6.475
	h6.476c7.728,0,9.964-1.282,11.938-8.583c1.974-7.301,3.65-18.252,3.65-18.252S36.46,14.011,24.026,13.924z"/>
<circle fill-rule="evenodd" clip-rule="evenodd" fill="#07738C" cx="15.969" cy="21.771" r="2.763"/>
<circle fill-rule="evenodd" clip-rule="evenodd" fill="#07738C" cx="32.249" cy="21.771" r="2.763"/>
<path fill-rule="evenodd" clip-rule="evenodd" fill="none" stroke="#07738C" stroke-width="2.9355" stroke-miterlimit="10" d="
	M15.535,19.75c0,0-4.103-18.165,8.525-18.165c12.135,0,8.69,18.478,8.69,18.478"/>
</svg>
