<?xml version="1.0" encoding="utf-8"?>
<!-- Generator: Adobe Illustrator 16.0.0, SVG Export Plug-In . SVG Version: 6.00 Build 0)  -->
<!DOCTYPE svg PUBLIC "-//W3C//DTD SVG 1.1//EN" "http://www.w3.org/Graphics/SVG/1.1/DTD/svg11.dtd">
<svg version="1.1" id="Capa_1" xmlns="http://www.w3.org/2000/svg" xmlns:xlink="http://www.w3.org/1999/xlink" x="0px" y="0px"
	 width="139.038px" height="139.307px" viewBox="180 33.789 139.038 139.307" enable-background="new 180 33.789 139.038 139.307"
	 xml:space="preserve">
<path fill="#05728C" d="M311.361,33.789H187.678c-4.243,0-7.677,3.434-7.677,7.677v123.689c0,4.237,3.434,7.672,7.677,7.672h66.594
	v-53.842h-18.124V98.002h18.124V82.528c0-17.96,10.964-27.739,26.986-27.739c7.682,0,14.268,0.574,16.191,0.829v18.769
	l-11.111,0.005c-8.713,0-10.399,4.145-10.399,10.215v13.4h20.786l-2.704,20.983H275.94v53.837h35.433
	c4.232,0,7.666-3.435,7.666-7.678V41.466C319.039,37.223,315.604,33.789,311.361,33.789z"/>
</svg>
