<?xml version="1.0" encoding="utf-8"?>
<!-- Generator: Adobe Illustrator 16.0.0, SVG Export Plug-In . SVG Version: 6.00 Build 0)  -->
<!DOCTYPE svg PUBLIC "-//W3C//DTD SVG 1.1//EN" "http://www.w3.org/Graphics/SVG/1.1/DTD/svg11.dtd">
<svg version="1.1" id="Capa_1" xmlns="http://www.w3.org/2000/svg" xmlns:xlink="http://www.w3.org/1999/xlink" x="0px" y="0px"
	 width="237px" height="138.554px" viewBox="180 33.789 237 138.554" enable-background="new 180 33.789 237 138.554"
	 xml:space="preserve">
<path fill="#05728C" d="M315.367,100.836l0.279,0.034c0-0.005,0-0.005,0-0.005l-0.347-0.043c-0.184-2.792-0.492-5.362-0.907-7.782
	h-65.268v23.704h39.206c-1.581,10.164-11.852,29.817-39.206,29.817c-23.603,0-42.856-19.538-42.856-43.646
	c0-24.095,19.253-43.646,42.856-43.646c13.429,0,22.417,5.728,27.551,10.666l18.762-18.072
	c-12.045-11.259-27.648-18.072-46.313-18.072c-38.217,0-69.125,30.908-69.125,69.125s30.908,69.125,69.125,69.125
	c39.895,0,66.367-28.043,66.367-67.543c0-1.36-0.115-2.474-0.192-3.669L315.367,100.836z"/>
<g>
	<polygon fill="#05728C" points="387.375,93.039 387.375,63.414 367.625,63.414 367.625,93.039 338,93.039 338,103.493 417,112.789 
		417,93.039 	"/>
	<polygon fill="#05728C" points="338,112.789 367.625,112.789 367.625,142.414 387.375,142.414 387.375,112.789 417,112.789 
		338,103.502 	"/>
</g>
</svg>
