<?xml version="1.0" encoding="utf-8"?>
<!-- Generator: Adobe Illustrator 16.0.0, SVG Export Plug-In . SVG Version: 6.00 Build 0)  -->
<!DOCTYPE svg PUBLIC "-//W3C//DTD SVG 1.1//EN" "http://www.w3.org/Graphics/SVG/1.1/DTD/svg11.dtd">
<svg version="1.1" id="Capa_1" xmlns="http://www.w3.org/2000/svg" xmlns:xlink="http://www.w3.org/1999/xlink" x="0px" y="0px"
	 width="139.038px" height="138.554px" viewBox="180 33.789 139.038 138.554" enable-background="new 180 33.789 139.038 138.554"
	 xml:space="preserve">
<g>
	<g id="post-instagram">
		<path fill="#05728C" d="M304.941,33.789H194.098c-7.621,0-13.855,6.235-13.855,13.855v110.843c0,7.621,6.235,13.855,13.855,13.855
			h110.843c7.621,0,13.855-6.235,13.855-13.855V47.645C318.796,40.024,312.562,33.789,304.941,33.789z M249.52,75.355
			c15.241,0,27.711,12.47,27.711,27.71s-12.47,27.711-27.711,27.711s-27.71-12.47-27.71-27.711S234.279,75.355,249.52,75.355z
			 M197.562,158.488c-2.078,0-3.464-1.385-3.464-3.464V96.138h14.548c-0.693,2.079-0.693,4.85-0.693,6.928
			c0,22.862,18.705,41.566,41.566,41.566c22.862,0,41.566-18.705,41.566-41.566c0-2.078,0-4.849-0.692-6.928h14.548v58.886
			c0,2.079-1.386,3.464-3.464,3.464H197.562z M304.941,64.964c0,2.078-1.386,3.464-3.464,3.464h-13.855
			c-2.079,0-3.464-1.386-3.464-3.464V51.108c0-2.078,1.385-3.464,3.464-3.464h13.855c2.078,0,3.464,1.386,3.464,3.464V64.964z"/>
	</g>
</g>
</svg>
