<?xml version="1.0" encoding="utf-8"?>
<!-- Generator: Adobe Illustrator 16.0.0, SVG Export Plug-In . SVG Version: 6.00 Build 0)  -->
<!DOCTYPE svg PUBLIC "-//W3C//DTD SVG 1.1//EN" "http://www.w3.org/Graphics/SVG/1.1/DTD/svg11.dtd">
<svg version="1.1" id="Layer_1" xmlns="http://www.w3.org/2000/svg" xmlns:xlink="http://www.w3.org/1999/xlink" x="0px" y="0px"
	 width="48.458px" height="57.053px" viewBox="-9.114 -3.906 48.458 57.053" enable-background="new -9.114 -3.906 48.458 57.053"
	 xml:space="preserve">
<g>
	<path fill-rule="evenodd" clip-rule="evenodd" fill="#308C9E" d="M39.219,20.26c0-13.348-10.82-24.167-24.166-24.167
		C1.706-3.906-9.115,6.913-9.115,20.26c0,9.848,5.896,18.314,14.346,22.08c0,0.002-0.001,0.004-0.001,0.006
		c0,0,0.029,0.008,0.041,0.012c0.692,0.307,1.401,0.581,2.126,0.823c2.563,1.209,6.541,3.889,6.961,9.017
		c0,0,0.062,0.948,0.97,0.948c0.843,0,0.905-1.323,0.905-1.323s1.27-5.776,7.213-8.896C32.654,39.515,39.219,30.655,39.219,20.26z"
		/>
	<g>
		<path fill="#FFFFFF" d="M19.215,32.387v-1.25c3.278-0.317,3.665-0.593,3.049-2.139c-0.666-1.525-1.639-3.729-2.663-6.058H8.94
			c-0.716,1.632-1.331,3.261-2.049,4.914c-1.102,2.689-0.614,3.007,3.048,3.282v1.25H-0.769v-1.25
			c3.126-0.359,3.791-0.551,5.508-4.173L14.68,6.082l1.485-0.401c2.945,6.691,6.38,14.72,9.403,21.518
			c1.383,3.347,2.101,3.686,5.303,3.939v1.25H19.215z M14.501,10.594h-0.103c-1.562,3.537-3.1,7.095-4.611,10.505h9.096
			L14.501,10.594z"/>
	</g>
</g>
</svg>
