<?xml version="1.0" encoding="utf-8"?>
<!-- Generator: Adobe Illustrator 16.0.0, SVG Export Plug-In . SVG Version: 6.00 Build 0)  -->
<!DOCTYPE svg PUBLIC "-//W3C//DTD SVG 1.1//EN" "http://www.w3.org/Graphics/SVG/1.1/DTD/svg11.dtd">
<svg version="1.1" id="Capa_1" xmlns="http://www.w3.org/2000/svg" xmlns:xlink="http://www.w3.org/1999/xlink" x="0px" y="0px"
	 width="132.595px" height="142.237px" viewBox="-12.408 -6.223 132.595 142.237"
	 enable-background="new -12.408 -6.223 132.595 142.237" xml:space="preserve">
<g id="_x34_rWR0I.tif">
	<g>
		<path fill-rule="evenodd" clip-rule="evenodd" fill="#393940" d="M-12.408,35.844c0.061-0.941,0.114-1.883,0.185-2.825
			c0.388-5.176,1.562-10.16,3.633-14.928c1.638-3.77,3.775-7.231,6.404-10.389c1.97-2.365,4.199-4.453,6.614-6.363
			c1.708-1.351,3.312-2.835,4.96-4.264c1.239-1.074,2.564-2.012,4.095-2.63c2.672-1.08,5.248-0.823,7.734,0.567
			c2.29,1.279,4.08,3.123,5.733,5.118c2.293,2.768,4.14,5.84,6.067,8.86c1.712,2.683,3.445,5.355,4.807,8.244
			c1.201,2.546,2.161,5.167,2.456,7.993c0.407,3.911-0.606,7.409-3.288,10.291c-1.521,1.636-3.292,3.037-4.926,4.571
			c-1.595,1.499-3.413,2.7-5.178,3.978c-2.127,1.54-3.762,3.465-4.448,6.071c-0.574,2.178-0.426,4.353,0.083,6.516
			c0.809,3.431,2.36,6.544,4.147,9.55c2.479,4.165,5.407,8.003,8.506,11.717c3.199,3.833,6.542,7.534,10.171,10.968
			c3.052,2.889,6.258,5.584,9.925,7.68c2.181,1.247,4.462,2.229,6.979,2.574c3.241,0.441,6.058-0.48,8.494-2.619
			c0.481-0.423,0.97-0.85,1.381-1.335c1.866-2.201,4.111-3.99,6.261-5.887c1.234-1.09,2.48-2.166,3.918-2.989
			c3.49-2,7.146-2.24,10.938-1.042c3.12,0.986,5.917,2.607,8.457,4.621c3.07,2.434,6.034,4.999,9.026,7.528
			c2.123,1.796,4.132,3.71,5.886,5.878c1.263,1.562,2.354,3.225,3.021,5.133c1.126,3.218,0.518,6.152-1.639,8.723
			c-1.003,1.195-2.202,2.231-3.354,3.295c-1.827,1.687-3.672,3.352-5.536,4.995c-3.448,3.042-7.331,5.39-11.564,7.164
			c-3.902,1.636-7.967,2.652-12.166,3.115c-1.151,0.126-2.312,0.157-3.47,0.234c-0.212,0.015-0.42,0.047-0.631,0.07
			c-0.673,0-1.344,0-2.016,0c-0.196-0.023-0.391-0.054-0.587-0.069c-1.292-0.096-2.588-0.157-3.875-0.294
			c-4.676-0.495-9.189-1.671-13.58-3.324c-6.962-2.623-13.326-6.331-19.331-10.687c-5.121-3.714-9.886-7.849-14.414-12.26
			c-5.292-5.16-10.226-10.646-14.894-16.374C8.014,87.425,3.784,81.593,0.056,75.407c-4.419-7.332-8.064-15.008-10.304-23.306
			c-1.023-3.789-1.726-7.632-1.982-11.553c-0.058-0.896-0.119-1.792-0.179-2.688C-12.408,37.188-12.408,36.516-12.408,35.844z"/>
	</g>
</g>
</svg>
