<?xml version="1.0" encoding="utf-8"?>
<!-- Generator: Adobe Illustrator 16.0.0, SVG Export Plug-In . SVG Version: 6.00 Build 0)  -->
<!DOCTYPE svg PUBLIC "-//W3C//DTD SVG 1.1//EN" "http://www.w3.org/Graphics/SVG/1.1/DTD/svg11.dtd">
<svg version="1.1" id="Capa_1" xmlns="http://www.w3.org/2000/svg" xmlns:xlink="http://www.w3.org/1999/xlink" x="0px" y="0px"
	 width="107.396px" height="138.554px" viewBox="180 33.789 107.396 138.554" enable-background="new 180 33.789 107.396 138.554"
	 xml:space="preserve">
<g>
	<path fill="#05728C" d="M224.146,125.093c-3.625,19.004-8.052,37.226-21.167,46.744c-4.047-28.727,5.946-50.299,10.586-73.202
		c-7.91-13.316,0.951-40.12,17.639-33.514c20.531,8.125-17.782,49.511,7.938,54.682c26.854,5.395,37.818-46.594,21.166-63.502
		c-24.059-24.412-70.036-0.557-64.381,34.396c1.375,8.547,10.203,11.138,3.527,22.931c-15.398-3.414-19.995-15.558-19.403-31.751
		c0.953-26.501,23.813-45.058,46.744-47.624c28.998-3.247,56.214,10.645,59.972,37.923c4.232,30.789-13.086,64.135-44.097,61.737
		C234.265,133.26,230.734,129.096,224.146,125.093z"/>
</g>
</svg>
