<?xml version="1.0" encoding="utf-8"?>
<!-- Generator: Adobe Illustrator 16.0.0, SVG Export Plug-In . SVG Version: 6.00 Build 0)  -->
<!DOCTYPE svg PUBLIC "-//W3C//DTD SVG 1.1//EN" "http://www.w3.org/Graphics/SVG/1.1/DTD/svg11.dtd">
<svg version="1.1" id="Capa_1" xmlns="http://www.w3.org/2000/svg" xmlns:xlink="http://www.w3.org/1999/xlink" x="0px" y="0px"
	 width="133.442px" height="133.44px" viewBox="-12.408 2.574 133.442 133.44"
	 enable-background="new -12.408 2.574 133.442 133.44" xml:space="preserve">
<g id="d9kYbQ.tif">
	<g>
		<path fill-rule="evenodd" clip-rule="evenodd" fill="#05728C" d="M54.269,2.574c36.792-0.078,66.581,29.642,66.765,66.609
			c0.183,36.792-29.736,66.78-66.681,66.832c-36.888,0.052-66.805-29.858-66.762-66.748C-12.365,32.379,17.354,2.653,54.269,2.574z"
			/>
	</g>
</g>
<g>
	<g>
		<path fill="#FFFFFF" d="M99.254,47.108c-3.036,1.346-6.294,2.258-9.717,2.666c3.495-2.093,6.17-5.412,7.438-9.355
			c-3.278,1.938-6.896,3.345-10.752,4.108c-3.089-3.294-7.479-5.345-12.351-5.345c-9.346,0-16.923,7.577-16.923,16.917
			c0,1.325,0.149,2.619,0.438,3.855c-14.061-0.706-26.53-7.443-34.876-17.681c-1.458,2.495-2.289,5.402-2.289,8.505
			c0,5.872,2.99,11.052,7.525,14.083c-2.773-0.093-5.38-0.856-7.665-2.124v0.211c0,8.196,5.835,15.036,13.572,16.592
			c-1.417,0.383-2.912,0.593-4.458,0.593c-1.093,0-2.15-0.107-3.186-0.314c2.154,6.728,8.401,11.619,15.803,11.753
			c-5.788,4.536-13.087,7.232-21.014,7.232c-1.367,0-2.712-0.082-4.037-0.232c7.489,4.811,16.381,7.613,25.938,7.613
			c31.129,0,48.144-25.782,48.144-48.143l-0.057-2.19C94.115,53.48,96.991,50.501,99.254,47.108z"/>
	</g>
</g>
</svg>
