<?xml version="1.0" encoding="utf-8"?>
<!-- Generator: Adobe Illustrator 16.0.0, SVG Export Plug-In . SVG Version: 6.00 Build 0)  -->
<!DOCTYPE svg PUBLIC "-//W3C//DTD SVG 1.1//EN" "http://www.w3.org/Graphics/SVG/1.1/DTD/svg11.dtd">
<svg version="1.1" id="Capa_1" xmlns="http://www.w3.org/2000/svg" xmlns:xlink="http://www.w3.org/1999/xlink" x="0px" y="0px"
	 width="133.442px" height="133.44px" viewBox="-12.408 2.574 133.442 133.44"
	 enable-background="new -12.408 2.574 133.442 133.44" xml:space="preserve">
<g id="d9kYbQ.tif">
	<g>
		<path fill-rule="evenodd" clip-rule="evenodd" fill="#05728C" d="M54.269,2.574c36.792-0.078,66.581,29.642,66.765,66.609
			c0.183,36.792-29.736,66.78-66.681,66.832c-36.888,0.052-66.805-29.858-66.762-66.748C-12.365,32.379,17.354,2.653,54.269,2.574z
			 M43.306,68.995c0,13.837,0,27.46,0,41.096c5.772,0,11.386,0,17.161,0c0-13.747,0-27.369,0-41.138c3.939,0,7.717,0,11.517,0
			c0.499-4.85,0.982-9.555,1.49-14.487c-4.409,0-8.676,0-12.901,0c-0.088-0.353-0.153-0.494-0.154-0.636
			c-0.01-2.55-0.042-5.1-0.01-7.648c0.038-3.058,1.245-4.214,4.326-4.221c2.784-0.006,5.57-0.001,8.414-0.001
			c0-4.783,0-9.399,0-14.191c-4.036,0-7.977-0.014-11.918,0.008c-1.248,0.007-2.507,0.021-3.742,0.181
			c-7.169,0.928-11.916,5.042-13.539,11.907c-0.466,1.973-0.582,4.051-0.661,6.088c-0.108,2.783-0.027,5.573-0.027,8.558
			c-2.779,0-5.397,0-8.053,0c0,4.924,0,9.647,0,14.486C37.873,68.995,40.455,68.995,43.306,68.995z"/>
		<path fill-rule="evenodd" clip-rule="evenodd" fill="#FFFFFF" d="M43.306,68.995c-2.852,0-5.433,0-8.096,0
			c0-4.839,0-9.562,0-14.486c2.655,0,5.274,0,8.053,0c0-2.985-0.082-5.775,0.027-8.558c0.079-2.038,0.194-4.115,0.661-6.088
			c1.623-6.864,6.37-10.979,13.539-11.907c1.235-0.16,2.494-0.174,3.742-0.181c3.941-0.021,7.882-0.008,11.918-0.008
			c0,4.792,0,9.408,0,14.191c-2.844,0-5.63-0.004-8.414,0.001c-3.081,0.007-4.288,1.163-4.326,4.221
			c-0.032,2.549,0,5.099,0.01,7.648c0.001,0.142,0.066,0.283,0.154,0.636c4.226,0,8.492,0,12.901,0
			c-0.508,4.933-0.991,9.637-1.49,14.487c-3.8,0-7.577,0-11.517,0c0,13.769,0,27.391,0,41.138c-5.775,0-11.389,0-17.161,0
			C43.306,96.456,43.306,82.833,43.306,68.995z"/>
	</g>
</g>
</svg>
