<?xml version="1.0" encoding="utf-8"?>
<!-- Generator: Adobe Illustrator 16.0.0, SVG Export Plug-In . SVG Version: 6.00 Build 0)  -->
<!DOCTYPE svg PUBLIC "-//W3C//DTD SVG 1.1//EN" "http://www.w3.org/Graphics/SVG/1.1/DTD/svg11.dtd">
<svg version="1.1" id="Capa_1" xmlns="http://www.w3.org/2000/svg" xmlns:xlink="http://www.w3.org/1999/xlink" x="0px" y="0px"
	 width="133.442px" height="133.44px" viewBox="-12.408 2.574 133.442 133.44"
	 enable-background="new -12.408 2.574 133.442 133.44" xml:space="preserve">
<g id="d9kYbQ.tif">
	<g>
		<path fill-rule="evenodd" clip-rule="evenodd" fill="#05728C" d="M54.269,2.574c36.792-0.078,66.581,29.642,66.765,66.609
			c0.183,36.792-29.736,66.78-66.681,66.832c-36.888,0.052-66.805-29.858-66.762-66.748C-12.365,32.379,17.354,2.653,54.269,2.574z"
			/>
	</g>
</g>
<g>
	<path fill="#FFFFFF" d="M48.268,83.449c-2.305,12.083-5.12,23.668-13.458,29.72c-2.573-18.265,3.78-31.979,6.73-46.542
		c-5.029-8.466,0.605-25.507,11.214-21.308c13.053,5.166-11.305,31.479,5.047,34.767c17.074,3.43,24.044-29.625,13.457-40.375
		C55.964,24.191,26.731,39.357,30.327,61.58c0.875,5.434,6.486,7.082,2.242,14.579c-9.791-2.171-12.713-9.891-12.337-20.187
		c0.606-16.849,15.141-28.647,29.72-30.279c18.438-2.064,35.741,6.768,38.131,24.111c2.689,19.575-8.32,40.777-28.037,39.253
		C54.702,88.641,52.457,85.994,48.268,83.449z"/>
</g>
</svg>
