<?xml version="1.0" encoding="utf-8"?>
<!-- Generator: Adobe Illustrator 16.0.0, SVG Export Plug-In . SVG Version: 6.00 Build 0)  -->
<!DOCTYPE svg PUBLIC "-//W3C//DTD SVG 1.1//EN" "http://www.w3.org/Graphics/SVG/1.1/DTD/svg11.dtd">
<svg version="1.1" id="Capa_1" xmlns="http://www.w3.org/2000/svg" xmlns:xlink="http://www.w3.org/1999/xlink" x="0px" y="0px"
	 width="171.5px" height="139.307px" viewBox="180 33.789 171.5 139.307" enable-background="new 180 33.789 171.5 139.307"
	 xml:space="preserve">
<g>
	<g>
		<path fill="#05728C" d="M351.5,50.271c-6.312,2.797-13.085,4.694-20.201,5.541c7.266-4.351,12.828-11.252,15.464-19.451
			c-6.816,4.029-14.339,6.955-22.355,8.542c-6.419-6.848-15.549-11.113-25.677-11.113c-19.429,0-35.183,15.753-35.183,35.172
			c0,2.754,0.311,5.444,0.911,8.016c-29.235-1.468-55.159-15.475-72.509-36.759c-3.033,5.187-4.758,11.231-4.758,17.683
			c0,12.207,6.216,22.977,15.646,29.278c-5.766-0.193-11.188-1.779-15.936-4.416v0.439c0,17.04,12.131,31.261,28.217,34.497
			c-2.947,0.793-6.055,1.232-9.27,1.232c-2.272,0-4.469-0.225-6.623-0.653c4.479,13.985,17.468,24.155,32.858,24.434
			c-12.035,9.431-27.21,15.036-43.692,15.036c-2.84,0-5.637-0.171-8.391-0.482c15.571,9.999,34.058,15.829,53.927,15.829
			c64.718,0,100.094-53.605,100.094-100.094l-0.118-4.554C340.816,63.517,346.795,57.323,351.5,50.271z"/>
	</g>
</g>
</svg>
