<?xml version="1.0" encoding="utf-8"?>
<!-- Generator: Adobe Illustrator 16.0.0, SVG Export Plug-In . SVG Version: 6.00 Build 0)  -->
<!DOCTYPE svg PUBLIC "-//W3C//DTD SVG 1.1//EN" "http://www.w3.org/Graphics/SVG/1.1/DTD/svg11.dtd">
<svg version="1.1" id="Capa_1" xmlns="http://www.w3.org/2000/svg" xmlns:xlink="http://www.w3.org/1999/xlink" x="0px" y="0px"
	 width="115.198px" height="138.554px" viewBox="180 33.789 115.198 138.554" enable-background="new 180 33.789 115.198 138.554"
	 xml:space="preserve">
<path fill="#05728C" d="M195.275,33.789h8.294l5.692,21.324l5.276-21.324h8.375l-9.59,31.708v21.642h-8.244V65.497L195.275,33.789z
	 M233.257,47.458c-6.446,0-10.721,4.261-10.721,10.569v19.291c0,6.933,3.625,10.547,10.721,10.547
	c5.887,0,10.518-3.935,10.518-10.547V58.027C243.775,51.871,239.183,47.458,233.257,47.458z M236.314,76.988
	c0,2.143-1.094,3.721-3.063,3.721c-2.022,0-3.192-1.654-3.192-3.721V58.677c0-2.154,0.99-3.75,3.049-3.75
	c2.244,0,3.206,1.55,3.206,3.75V76.988z M263.553,47.787v29.871c-0.889,1.117-2.88,2.948-4.304,2.948
	c-1.558,0-1.946-1.072-1.946-2.649V47.787h-7.318v32.889c0,3.886,1.192,7.025,5.113,7.025c2.211,0,5.288-1.15,8.455-4.914v4.343
	h7.312V47.787H263.553z M276.243,127.607c-2.576,0-3.117,1.817-3.117,4.393v3.797h6.154v-3.803
	C279.292,129.458,278.751,127.607,276.243,127.607z M249.153,127.837c-0.484,0.248-0.962,0.63-1.44,1.136v23.361
	c0.574,0.613,1.12,1.051,1.654,1.321c1.137,0.574,2.79,0.613,3.566-0.388c0.405-0.535,0.607-1.389,0.607-2.587v-19.344
	c0-1.272-0.248-2.228-0.742-2.88C251.949,127.343,250.374,127.219,249.153,127.837z M276.957,97.913
	c-15.001-1.019-63.739-1.019-78.715,0c-16.208,1.108-18.121,10.901-18.242,36.674c0.121,25.729,2.017,35.566,18.242,36.674
	c14.976,1.018,63.713,1.018,78.715,0c16.205-1.108,18.118-10.901,18.242-36.674C295.075,108.859,293.185,99.021,276.957,97.913z
	 M205.971,159.461h-7.85v-43.424h-8.123v-7.375h24.089v7.375h-8.123v43.424H205.971z M233.884,159.461h-6.969v-4.129
	c-1.285,1.524-2.621,2.688-4.008,3.482c-3.757,2.154-8.912,2.098-8.912-5.501v-31.325h6.963v28.732c0,1.508,0.362,2.526,1.856,2.526
	c1.359,0,3.249-1.75,4.095-2.807v-28.451h6.97v37.474H233.884z M260.707,151.698c0,4.635-1.732,8.246-6.368,8.246
	c-2.553,0-4.679-0.934-6.62-3.364v2.88h-7.031v-50.799h7.031v16.357c1.569-1.918,3.707-3.505,6.199-3.505
	c5.102,0,6.8,4.32,6.8,9.394v20.79H260.707z M286.458,141.607h-13.326v7.076c0,2.812,0.242,5.243,3.043,5.243
	c2.942,0,3.117-1.98,3.117-5.243v-2.604h7.166v2.818c0,7.21-3.094,11.593-10.44,11.593c-6.649,0-10.057-4.854-10.057-11.593v-16.83
	c0-6.502,4.297-11.025,10.586-11.025c6.682,0,9.911,4.252,9.911,11.025V141.607L286.458,141.607z"/>
</svg>
